<svg width="140" height="158" viewBox="0 0 140 158" fill="none" xmlns="http://www.w3.org/2000/svg">
<path fill-rule="evenodd" clip-rule="evenodd" d="M110.804 48.1329C113.349 46.665 116.5 48.483 116.5 51.3784V91.051C116.5 93.9463 119.665 95.7643 122.197 94.3099L122.224 94.283C123.395 93.6096 124.095 92.3842 124.095 91.0375L124.244 38.006C124.244 35.1107 121.106 33.2658 118.588 34.7202L103.074 43.7159C101.902 44.3892 101.202 45.6147 101.202 46.9613V95.4276C101.202 96.7743 100.502 97.9998 99.3304 98.6731C96.8121 100.141 93.634 98.323 93.6744 95.3872L93.8225 55.7415C93.8225 52.8462 90.6848 51.0282 88.1665 52.4557L72.8146 61.3167C71.643 61.99 70.9023 63.2155 70.9023 64.5756V117.419C70.9023 120.314 74.067 122.132 76.5583 120.664H76.5853C77.7568 119.991 78.4571 118.725 78.4571 117.419V68.9523C78.4571 67.6056 79.1574 66.3802 80.302 65.7068L80.4771 65.5856C82.9954 64.0908 86.2004 65.9088 86.1735 68.8446L86.0523 108.638C86.0523 111.534 89.19 113.352 91.7083 111.924L107.047 103.104C108.218 102.43 108.919 101.164 108.919 99.8177V51.3784C108.919 50.0317 109.659 48.8062 110.804 48.1329Z" fill="white"/>
<path fill-rule="evenodd" clip-rule="evenodd" d="M29.6672 48.1329C27.1086 46.665 23.9708 48.483 23.9708 51.3784V91.051C23.9708 93.9463 20.8062 95.7643 18.2745 94.3099L18.2475 94.283C17.0759 93.6096 16.3757 92.3842 16.3757 91.0375L16.2275 38.006C16.2275 35.1107 19.3653 33.2658 21.8835 34.7202L37.397 43.7159C38.5686 44.3892 39.2689 45.6147 39.2689 46.9613V95.4276C39.2689 96.7743 39.9692 97.9998 41.1408 98.6731C43.659 100.141 46.8371 98.323 46.7967 95.3872L46.6486 55.7415C46.6486 52.8462 49.7863 51.0282 52.3046 52.4557L67.6161 61.3032C68.7877 61.9766 69.5284 63.202 69.5284 64.5622V117.419C69.5284 120.314 66.3637 122.132 63.8724 120.664H63.8455C62.6739 119.991 61.9736 118.725 61.9736 117.419V68.9523C61.9736 67.6056 61.2733 66.3802 60.1287 65.7068L59.9536 65.5856C57.4354 64.0908 54.2303 65.9088 54.2572 68.8446L54.3784 108.638C54.3784 111.534 51.2407 113.352 48.7225 111.924L33.384 103.104C32.2124 102.43 31.5121 101.164 31.5121 99.8177V51.3784C31.5391 50.0317 30.8119 48.8062 29.6672 48.1329Z" fill="#ED2A32"/>
<path d="M68.1968 1.18828L23.7705 26.8287C21.0772 28.3774 21.0772 32.2827 23.7705 33.8583L68.1968 59.4987C69.4627 60.2259 71.0113 60.2259 72.2772 59.4987L116.704 33.7101C119.397 32.1615 119.397 28.2292 116.677 26.6806L72.2503 1.18828C70.9844 0.48802 69.4627 0.48802 68.1968 1.18828Z" fill="white"/>
<path d="M70.1592 53.6541C83.011 53.6541 93.4295 43.2356 93.4295 30.3838C93.4295 17.532 83.011 7.11353 70.1592 7.11353C57.3074 7.11353 46.8889 17.532 46.8889 30.3838C46.8889 43.2356 57.3074 53.6541 70.1592 53.6541Z" fill="#15151F"/>
<path d="M62.3782 22.1962C62.3782 21.9269 62.3243 21.3882 62.2031 20.6341C62.2031 19.9742 62.2974 19.3682 62.4994 18.7353C62.6745 18.1293 62.9842 17.5233 63.3747 16.9308C64.1019 15.8131 65.085 14.9108 66.27 14.2509C67.4686 13.5911 68.7748 13.2544 70.1484 13.2544C72.0203 13.2544 73.5555 13.6719 74.754 14.5472C75.9525 15.4225 76.8279 16.446 77.3396 17.6849C77.8783 18.8969 78.1207 20.0012 78.1207 21.0381C78.1207 22.277 77.9052 23.3274 77.4877 24.2701C77.0703 25.1993 76.4373 25.9938 75.6563 26.6537C75.0233 27.1654 74.3635 27.5829 73.6093 27.8926C72.8821 28.1889 72.0472 28.4986 71.0507 28.7679C70.0811 29.0373 69.3943 29.2797 68.9768 29.5221C68.3439 29.8183 67.8591 30.1819 67.4955 30.6667C67.1588 31.1515 66.9838 31.7171 66.9838 32.3904C66.9838 32.781 67.078 33.1715 67.2262 33.5082C67.3743 33.8448 67.6167 34.2084 67.9534 34.5316C68.5594 35.1646 69.2731 35.5012 70.1215 35.5012C71.0911 35.5012 71.8722 35.1646 72.4377 34.4778C73.0033 33.8179 73.3131 32.9964 73.3131 32.0403H77.2857C77.2857 33.0638 77.0164 34.1546 76.5047 35.2319C75.966 36.3227 75.1849 37.2519 74.0672 38.006C73.5016 38.3965 72.8956 38.7063 72.2627 38.9083C71.6297 39.1237 70.9026 39.2045 70.1888 39.2045C68.9499 39.2045 67.7783 38.9083 66.6606 38.3023C65.5428 37.6963 64.6675 36.821 63.9807 35.7032C63.644 35.1242 63.3747 34.5586 63.1997 33.9256C63.0246 33.3196 62.9303 32.6598 62.9303 31.9326L63.0515 31.8114V31.7575C63.0515 31.1515 63.1054 30.6398 63.2266 30.2223C63.3478 29.7645 63.5228 29.347 63.7652 28.9295C64.2231 28.1754 64.7887 27.5694 65.4486 27.125C66.1354 26.6671 66.9299 26.2497 67.8322 25.8861L70.4582 24.8626C72.6801 24.0546 73.8921 22.9369 74.0672 21.5094C74.0672 20.5802 73.8921 19.7857 73.5285 19.1258C73.1649 18.4256 72.6801 17.9138 72.0472 17.5233C71.4412 17.1866 70.8083 17.0116 70.1215 17.0116C69.098 17.0116 68.1958 17.4021 67.4147 18.1562C66.6336 18.9104 66.2431 19.8126 66.2431 20.8092C66.3374 21.267 66.4182 21.7384 66.4586 22.2232H62.3782V22.1962ZM70.1484 42.9617C70.6871 42.9617 71.1449 43.0829 71.5085 43.3523C71.8721 43.5947 72.1684 43.9313 72.4108 44.3488C72.6263 44.7393 72.7071 45.1299 72.7071 45.5204C72.7071 46.2206 72.4647 46.8132 71.9529 47.3249C71.4682 47.8636 70.8756 48.1329 70.1484 48.1329C69.3943 48.1329 68.7614 47.8636 68.317 47.3518C67.8591 46.8401 67.6302 46.2341 67.6302 45.6012C67.6302 44.9413 67.8726 44.3623 68.3574 43.7967C68.8287 43.2311 69.4347 42.9617 70.1484 42.9617Z" fill="#ED2A32"/>
<path d="M10.6707 157.971H2.15671H2.09632C1.43212 157.941 0.888672 157.397 0.888672 156.703V152.144C0.888672 151.752 1.19058 151.45 1.58307 151.45H3.48512C3.87761 151.45 4.17952 151.752 4.17952 152.144V154.046C4.17952 154.439 4.48144 154.741 4.87392 154.741H7.44019V139.132C7.44019 138.739 7.7421 138.437 8.13459 138.437H10.0366C10.4291 138.437 10.731 138.739 10.731 139.132V157.971H10.6707Z" fill="white"/>
<path d="M12.8147 139.1C12.8147 138.708 13.1166 138.406 13.5091 138.406H15.381C15.7734 138.406 16.0754 138.708 16.0754 139.1V154.045C16.0754 154.437 16.3773 154.739 16.7698 154.739H19.336V139.13C19.336 138.738 19.6379 138.436 20.0304 138.436H21.9325C22.325 138.436 22.6269 138.738 22.6269 139.13V158H15.3206C13.9016 157.94 12.8147 156.762 12.8147 155.373V139.1Z" fill="white"/>
<path d="M31.2603 142.935C31.2603 142.24 30.7169 141.697 30.0225 141.667H26.8222C27.4864 141.727 27.9997 142.27 27.9997 142.935V146.799V146.89C27.9997 146.92 27.9997 146.95 27.9997 146.98C28.0299 147.614 28.5733 148.127 29.2073 148.158H31.9547H32.0151C33.4341 148.218 34.521 149.396 34.521 150.815V155.313C34.521 155.524 34.4908 155.736 34.4606 155.947C34.1889 157.064 33.1926 157.909 32.0151 157.97H31.8944H27.3958H27.2449C27.0939 157.97 26.9128 157.94 26.7618 157.909C25.7957 157.668 25.0409 156.913 24.7994 155.947C24.7692 155.736 24.739 155.524 24.739 155.313V153.773C24.739 153.381 25.0409 153.079 25.4334 153.079H27.3355C27.728 153.079 28.0299 153.381 28.0299 153.773V154.045C28.0299 154.437 28.3318 154.739 28.7243 154.739H30.6263C31.0188 154.739 31.3207 154.437 31.3207 154.045V152.113C31.3207 151.75 31.0188 151.418 30.6263 151.418H27.3958H27.2449C27.0939 151.418 26.9128 151.388 26.7618 151.358C25.7957 151.147 25.0409 150.392 24.7994 149.426C24.7692 149.214 24.739 149.003 24.739 148.822V141.063C24.739 140.851 24.7692 140.64 24.7994 140.429C25.0409 139.463 25.7957 138.708 26.7618 138.466C26.9128 138.436 27.0637 138.406 27.2449 138.406H27.3053C27.3355 138.406 27.3657 138.406 27.3657 138.406H31.8642H31.9849C33.4039 138.466 34.4908 139.644 34.4908 141.063V144.263C34.4908 144.625 34.2191 144.927 33.8266 144.957H31.8642C31.5019 144.957 31.2 144.655 31.2 144.263V142.935H31.2603Z" fill="white"/>
<path d="M46.2926 139.1V141.002C46.2926 141.365 45.9907 141.667 45.6586 141.697H41.7941C42.4885 141.727 43.032 142.27 43.032 142.965V157.306C43.032 157.698 42.7301 158 42.3376 158H40.4355C40.043 158 39.7411 157.698 39.7411 157.306V141.697H37.1145C36.7824 141.697 36.4805 141.395 36.4805 141.002V139.1C36.4805 138.768 36.7522 138.466 37.0843 138.406H45.6586C46.0209 138.466 46.2926 138.768 46.2926 139.1Z" fill="white"/>
<path d="M61.3036 138.375C61.998 138.406 62.5414 138.949 62.5414 139.644V157.185C62.5414 157.607 62.2395 157.909 61.847 157.909H59.9752C59.5827 157.909 59.2808 157.607 59.2808 157.215V152.052C59.2808 151.69 58.9789 151.388 58.5864 151.388H56.0201V157.215C56.0201 157.607 55.7182 157.909 55.3257 157.909H53.4236C53.0312 157.909 52.7292 157.607 52.7292 157.185V139.644C52.7292 138.949 53.2727 138.406 53.9369 138.375H53.9973H61.213H61.3036ZM59.2808 142.331C59.2808 141.968 58.9789 141.666 58.5864 141.666H54.7823C55.4465 141.666 56.0201 142.27 56.0201 142.934V147.463C56.0201 147.856 56.322 148.157 56.7145 148.157H58.6166C59.009 148.157 59.311 147.886 59.311 147.493V142.331H59.2808Z" fill="white"/>
<path d="M71.1166 142.934C71.1166 142.24 70.5732 141.697 69.8788 141.666H66.6483C67.3125 141.727 67.8258 142.27 67.8258 142.934V146.799V146.889C67.8258 146.92 67.8258 146.95 67.8258 146.98C67.856 147.614 68.3994 148.127 69.0334 148.157H71.7808H71.8412C73.2602 148.218 74.3471 149.395 74.3471 150.814V155.313C74.3471 155.524 74.3169 155.735 74.2867 155.947C74.015 157.064 73.0187 157.909 71.8412 157.97H71.6903H67.1917H67.0408C66.8898 157.97 66.7087 157.939 66.5577 157.909C65.5916 157.668 64.8368 156.913 64.5953 155.947C64.5651 155.735 64.5349 155.524 64.5349 155.313V153.773C64.5349 153.381 64.8368 153.079 65.2293 153.079H67.1314C67.5239 153.079 67.8258 153.381 67.8258 153.773V154.045C67.8258 154.437 68.1277 154.739 68.5202 154.739H70.4222C70.8147 154.739 71.1166 154.437 71.1166 154.045V152.113C71.1166 151.75 70.8147 151.418 70.4222 151.418H67.2219H67.071C66.92 151.418 66.7389 151.388 66.5879 151.358C65.6218 151.116 64.867 150.361 64.6255 149.395C64.5953 149.184 64.5651 148.973 64.5651 148.791V141.032C64.5651 140.821 64.5953 140.61 64.6255 140.398C64.867 139.432 65.6218 138.677 66.5879 138.436C66.7389 138.406 66.8898 138.375 67.071 138.375H67.1314C67.1616 138.375 67.1917 138.375 67.1917 138.375H71.6903H71.8412C73.2602 138.436 74.3471 139.613 74.3471 141.032V144.233C74.3471 144.595 74.0754 144.897 73.6829 144.927H71.7204C71.3581 144.927 71.0562 144.625 71.0562 144.233V142.934H71.1166Z" fill="white"/>
<path d="M83.8284 149.848C85.2473 149.909 86.3342 151.086 86.3342 152.505V156.702C86.3342 157.396 85.7908 157.94 85.0964 157.97H85.036H83.768C83.3755 157.97 83.0736 157.668 83.0736 157.306V152.143C83.0736 151.781 82.8018 151.509 82.4396 151.449H78.6053C79.2695 151.479 79.8129 152.022 79.8129 152.717V157.306C79.8129 157.698 79.511 157.97 79.1185 157.97H76.5522V138.406H79.1185C79.511 138.406 79.8129 138.708 79.8129 139.1V147.524C79.8129 147.886 80.0846 148.188 80.4469 148.218H82.4094C82.7717 148.218 83.0434 147.916 83.0434 147.524V139.1C83.0434 138.738 83.3453 138.436 83.7378 138.436H85.0058H85.0662C85.7606 138.466 86.304 139.01 86.304 139.704V147.222C86.3342 148.641 85.2473 149.788 83.8284 149.848Z" fill="white"/>
<path d="M109.489 141.032V157.275C109.489 157.668 109.187 157.97 108.794 157.97H106.892C106.5 157.97 106.198 157.668 106.198 157.275V142.331C106.198 141.938 105.896 141.636 105.504 141.636H101.699C102.394 141.667 102.937 142.21 102.937 142.904V157.245C102.937 157.638 102.635 157.94 102.243 157.94H100.341C99.9484 157.94 99.6465 157.638 99.6465 157.245V142.301C99.6465 141.908 99.3446 141.606 98.9521 141.606H95.148C95.8122 141.636 96.3556 142.18 96.3556 142.874V157.215C96.3556 157.608 96.0537 157.909 95.6612 157.909H93.8799C93.4875 157.909 93.1855 157.608 93.1855 157.215V138.345H106.983C108.402 138.496 109.489 139.644 109.489 141.032Z" fill="white"/>
<path d="M113.506 157.788C112.539 157.577 111.815 156.822 111.573 155.856C111.543 155.645 111.513 155.434 111.513 155.252V141.093C111.513 139.704 112.6 138.557 113.989 138.466C115.589 138.375 117.159 138.375 118.729 138.466C120.117 138.526 121.204 139.674 121.204 141.093V155.252C121.204 156.671 120.087 157.788 118.729 157.879C117.189 157.97 115.589 157.97 113.989 157.879C113.807 157.849 113.657 157.819 113.506 157.788ZM117.219 154.528C117.521 154.407 117.732 154.196 117.883 153.864C117.944 153.713 118.004 153.531 118.004 153.35V142.934C118.004 142.753 117.974 142.602 117.883 142.421C117.763 142.119 117.521 141.878 117.219 141.757C117.068 141.696 116.917 141.666 116.766 141.636H113.596C114.26 141.696 114.743 142.24 114.743 142.904V153.32C114.743 153.652 114.864 153.954 115.106 154.196C115.589 154.679 116.253 154.618 116.796 154.588C116.917 154.618 117.068 154.588 117.219 154.528Z" fill="white"/>
<path d="M139.496 141.032V157.275C139.496 157.668 139.194 157.97 138.801 157.97H136.899C136.507 157.97 136.205 157.668 136.205 157.275V142.331C136.205 141.938 135.903 141.636 135.511 141.636H131.706C132.401 141.667 132.944 142.21 132.944 142.904V157.245C132.944 157.638 132.642 157.94 132.25 157.94H130.408C130.016 157.94 129.714 157.638 129.714 157.245V142.301C129.714 141.908 129.412 141.606 129.019 141.606H125.215C125.879 141.636 126.423 142.18 126.423 142.874V157.215C126.423 157.608 126.121 157.909 125.729 157.909H123.826C123.434 157.909 123.132 157.608 123.132 157.215V138.345H136.93C138.409 138.496 139.496 139.644 139.496 141.032Z" fill="white"/>
</svg>
